<svg width="26" height="26" viewBox="0 0 26 26" fill="none" xmlns="http://www.w3.org/2000/svg">
<g id="Group">
<path id="Vector" d="M6.98242 16.4214L10.5122 11.8338L14.5386 14.9968L17.9929 10.5388" stroke="#CAC9CF" stroke-width="1.63295" stroke-linecap="round" stroke-linejoin="round"/>
<path id="Vector_2" d="M22.0192 6.20947C23.271 6.20947 24.2859 5.19462 24.2859 3.94275C24.2859 2.69087 23.271 1.67603 22.0192 1.67603C20.7673 1.67603 19.7524 2.69087 19.7524 3.94275C19.7524 5.19462 20.7673 6.20947 22.0192 6.20947Z" stroke="#CAC9CF" stroke-width="1.63295" stroke-linecap="round" stroke-linejoin="round"/>
<path id="Vector_3" d="M16.0392 2.66919H7.46798C3.91642 2.66919 1.71423 5.18443 1.71423 8.73599V18.268C1.71423 21.8196 3.87324 24.324 7.46798 24.324H17.6153C21.1669 24.324 23.369 21.8196 23.369 18.268V9.96662" stroke="#CAC9CF" stroke-width="1.63295" stroke-linecap="round" stroke-linejoin="round"/>
</g>
</svg>
