<svg width="76" height="22" viewBox="0 0 76 22" fill="none" xmlns="http://www.w3.org/2000/svg">
<path d="M17.792 11.834C17.792 12.7227 17.6735 13.569 17.4365 14.373C17.1995 15.1686 16.8652 15.9049 16.4336 16.582C16.0104 17.2591 15.5026 17.8727 14.9102 18.4229C14.3177 18.9645 13.6618 19.4258 12.9424 19.8066C12.2314 20.1875 11.4655 20.4837 10.6445 20.6953C9.83203 20.8984 8.99414 21 8.13086 21H0.0693359V2.71875H8.13086C8.99414 2.71875 9.83203 2.82031 10.6445 3.02344C11.457 3.22656 12.2188 3.51855 12.9297 3.89941C13.6491 4.27181 14.305 4.72884 14.8975 5.27051C15.4984 5.81217 16.0104 6.42155 16.4336 7.09863C16.8652 7.76725 17.1995 8.50358 17.4365 9.30762C17.6735 10.1032 17.792 10.9453 17.792 11.834ZM12.6758 11.834C12.6758 10.8438 12.5531 9.9043 12.3076 9.01562C12.0706 8.11849 11.6982 7.33138 11.1904 6.6543C10.6826 5.97721 10.0352 5.43978 9.24805 5.04199C8.4694 4.64421 7.53418 4.44531 6.44238 4.44531H5.10938V19.2227H6.44238C7.51725 19.2227 8.44401 19.0238 9.22266 18.626C10.0098 18.2197 10.6572 17.6781 11.165 17.001C11.6813 16.3154 12.0622 15.5283 12.3076 14.6396C12.5531 13.751 12.6758 12.8158 12.6758 11.834ZM35.9717 13.6367C35.9717 14.3984 35.8701 15.1136 35.667 15.7822C35.4639 16.4508 35.1803 17.0687 34.8164 17.6357C34.4609 18.2028 34.0293 18.7148 33.5215 19.1719C33.0137 19.6204 32.4551 20.0013 31.8457 20.3145C31.2448 20.6276 30.5973 20.8688 29.9033 21.0381C29.2178 21.2074 28.5111 21.292 27.7832 21.292C27.0553 21.292 26.3486 21.2074 25.6631 21.0381C24.9775 20.8688 24.3301 20.6276 23.7207 20.3145C23.1198 20.0013 22.5654 19.6204 22.0576 19.1719C21.5498 18.7148 21.1139 18.2028 20.75 17.6357C20.3945 17.0687 20.1152 16.4508 19.9121 15.7822C19.709 15.1051 19.6074 14.39 19.6074 13.6367C19.6074 12.8835 19.709 12.1725 19.9121 11.5039C20.1152 10.8268 20.3945 10.2048 20.75 9.6377C21.1139 9.07064 21.5498 8.56283 22.0576 8.11426C22.5654 7.65723 23.1198 7.27214 23.7207 6.95898C24.3301 6.64583 24.9775 6.40462 25.6631 6.23535C26.3486 6.06608 27.0553 5.98145 27.7832 5.98145C28.5111 5.98145 29.2178 6.06608 29.9033 6.23535C30.5973 6.40462 31.2448 6.64583 31.8457 6.95898C32.4551 7.27214 33.0137 7.65723 33.5215 8.11426C34.0293 8.56283 34.4609 9.07064 34.8164 9.6377C35.1803 10.2048 35.4639 10.8268 35.667 11.5039C35.8701 12.1725 35.9717 12.8835 35.9717 13.6367ZM31.6045 13.6367C31.6045 13.2305 31.5791 12.8031 31.5283 12.3545C31.486 11.8975 31.4098 11.4531 31.2998 11.0215C31.1898 10.5814 31.0374 10.1624 30.8428 9.76465C30.6566 9.3584 30.4238 9.00716 30.1445 8.71094C29.8652 8.40625 29.5309 8.16504 29.1416 7.9873C28.7523 7.80111 28.2995 7.70801 27.7832 7.70801C27.2923 7.70801 26.8564 7.80111 26.4756 7.9873C26.0947 8.1735 25.7604 8.42318 25.4727 8.73633C25.1934 9.04102 24.9564 9.39648 24.7617 9.80273C24.5755 10.209 24.4232 10.6322 24.3047 11.0723C24.1862 11.5039 24.1016 11.944 24.0508 12.3926C24 12.8327 23.9746 13.2474 23.9746 13.6367C23.9746 14.026 24 14.445 24.0508 14.8936C24.1016 15.3337 24.1862 15.7738 24.3047 16.2139C24.4232 16.654 24.5755 17.0771 24.7617 17.4834C24.9564 17.8812 25.1934 18.2367 25.4727 18.5498C25.7604 18.8545 26.0947 19.0999 26.4756 19.2861C26.8564 19.4723 27.2923 19.5654 27.7832 19.5654C28.291 19.5654 28.7396 19.4766 29.1289 19.2988C29.5182 19.1126 29.8525 18.8672 30.1318 18.5625C30.4196 18.2578 30.6566 17.9066 30.8428 17.5088C31.029 17.111 31.1771 16.6921 31.2871 16.252C31.4056 15.8118 31.486 15.3675 31.5283 14.9189C31.5791 14.4704 31.6045 14.043 31.6045 13.6367ZM54.1768 13.6367C54.1768 14.3984 54.0752 15.1136 53.8721 15.7822C53.6689 16.4508 53.3854 17.0687 53.0215 17.6357C52.666 18.2028 52.2344 18.7148 51.7266 19.1719C51.2188 19.6204 50.6602 20.0013 50.0508 20.3145C49.4499 20.6276 48.8024 20.8688 48.1084 21.0381C47.4229 21.2074 46.7161 21.292 45.9883 21.292C45.2604 21.292 44.5537 21.2074 43.8682 21.0381C43.1826 20.8688 42.5352 20.6276 41.9258 20.3145C41.3249 20.0013 40.7705 19.6204 40.2627 19.1719C39.7549 18.7148 39.319 18.2028 38.9551 17.6357C38.5996 17.0687 38.3203 16.4508 38.1172 15.7822C37.9141 15.1051 37.8125 14.39 37.8125 13.6367C37.8125 12.8835 37.9141 12.1725 38.1172 11.5039C38.3203 10.8268 38.5996 10.2048 38.9551 9.6377C39.319 9.07064 39.7549 8.56283 40.2627 8.11426C40.7705 7.65723 41.3249 7.27214 41.9258 6.95898C42.5352 6.64583 43.1826 6.40462 43.8682 6.23535C44.5537 6.06608 45.2604 5.98145 45.9883 5.98145C46.7161 5.98145 47.4229 6.06608 48.1084 6.23535C48.8024 6.40462 49.4499 6.64583 50.0508 6.95898C50.6602 7.27214 51.2188 7.65723 51.7266 8.11426C52.2344 8.56283 52.666 9.07064 53.0215 9.6377C53.3854 10.2048 53.6689 10.8268 53.8721 11.5039C54.0752 12.1725 54.1768 12.8835 54.1768 13.6367ZM49.8096 13.6367C49.8096 13.2305 49.7842 12.8031 49.7334 12.3545C49.6911 11.8975 49.6149 11.4531 49.5049 11.0215C49.3949 10.5814 49.2425 10.1624 49.0479 9.76465C48.8617 9.3584 48.6289 9.00716 48.3496 8.71094C48.0703 8.40625 47.736 8.16504 47.3467 7.9873C46.9574 7.80111 46.5046 7.70801 45.9883 7.70801C45.4974 7.70801 45.0615 7.80111 44.6807 7.9873C44.2998 8.1735 43.9655 8.42318 43.6777 8.73633C43.3984 9.04102 43.1615 9.39648 42.9668 9.80273C42.7806 10.209 42.6283 10.6322 42.5098 11.0723C42.3913 11.5039 42.3066 11.944 42.2559 12.3926C42.2051 12.8327 42.1797 13.2474 42.1797 13.6367C42.1797 14.026 42.2051 14.445 42.2559 14.8936C42.3066 15.3337 42.3913 15.7738 42.5098 16.2139C42.6283 16.654 42.7806 17.0771 42.9668 17.4834C43.1615 17.8812 43.3984 18.2367 43.6777 18.5498C43.9655 18.8545 44.2998 19.0999 44.6807 19.2861C45.0615 19.4723 45.4974 19.5654 45.9883 19.5654C46.4961 19.5654 46.9447 19.4766 47.334 19.2988C47.7233 19.1126 48.0576 18.8672 48.3369 18.5625C48.6247 18.2578 48.8617 17.9066 49.0479 17.5088C49.234 17.111 49.3822 16.6921 49.4922 16.252C49.6107 15.8118 49.6911 15.3675 49.7334 14.9189C49.7842 14.4704 49.8096 14.043 49.8096 13.6367ZM69.3604 7.63184L66.9482 11.6309C66.8467 11.2923 66.7155 10.9115 66.5547 10.4883C66.3939 10.0651 66.195 9.67155 65.958 9.30762C65.721 8.93522 65.4375 8.6263 65.1074 8.38086C64.7773 8.12695 64.3965 8 63.9648 8C63.5671 8 63.2201 8.10156 62.9238 8.30469C62.6361 8.50781 62.3906 8.77441 62.1875 9.10449C61.9844 9.42611 61.8151 9.79427 61.6797 10.209C61.5527 10.6152 61.4512 11.0299 61.375 11.4531C61.3073 11.8678 61.2607 12.2699 61.2354 12.6592C61.21 13.04 61.1973 13.3701 61.1973 13.6494V21H56.8936V6.33691H58.5439L60.2832 9.75195C60.5202 9.20182 60.791 8.69824 61.0957 8.24121C61.4004 7.77572 61.7516 7.37793 62.1494 7.04785C62.5472 6.70931 62.9958 6.44694 63.4951 6.26074C64.0029 6.07454 64.5742 5.98145 65.209 5.98145C65.5391 5.98145 65.9072 6.01107 66.3135 6.07031C66.7197 6.12109 67.1175 6.21419 67.5068 6.34961C67.8962 6.47656 68.2559 6.64583 68.5859 6.85742C68.916 7.06901 69.1742 7.32715 69.3604 7.63184ZM75.6699 2.79492C75.6699 3.11654 75.6064 3.42122 75.4795 3.70898C75.361 3.99674 75.196 4.24642 74.9844 4.45801C74.7728 4.6696 74.5231 4.83887 74.2354 4.96582C73.9476 5.08431 73.6429 5.14355 73.3213 5.14355C72.9997 5.14355 72.695 5.08431 72.4072 4.96582C72.1279 4.83887 71.8825 4.6696 71.6709 4.45801C71.4593 4.24642 71.29 3.99674 71.1631 3.70898C71.0446 3.42122 70.9854 3.11654 70.9854 2.79492C70.9854 2.47331 71.0446 2.17285 71.1631 1.89355C71.29 1.60579 71.4593 1.35612 71.6709 1.14453C71.8825 0.932943 72.1279 0.767904 72.4072 0.649414C72.695 0.522461 72.9997 0.458984 73.3213 0.458984C73.6429 0.458984 73.9476 0.522461 74.2354 0.649414C74.5231 0.767904 74.7728 0.932943 74.9844 1.14453C75.196 1.35612 75.361 1.60579 75.4795 1.89355C75.6064 2.17285 75.6699 2.47331 75.6699 2.79492ZM75.4795 21H71.1758V6.34961H75.4795V21Z" fill="#111111"/>
</svg>
