<svg width="378" height="357" viewBox="0 0 378 357" fill="none" xmlns="http://www.w3.org/2000/svg">
<rect width="378" height="357" fill="white"/>
<rect x="32" y="17" width="318" height="318" rx="60" fill="#E0F931"/>
<path d="M246.242 114.644C247.082 119.941 247.176 125.097 246.524 130.113C245.863 135.079 244.567 139.783 242.634 144.227C240.752 148.662 238.305 152.799 235.294 156.638C232.275 160.426 228.802 163.795 224.874 166.745C220.997 169.687 216.712 172.176 212.019 174.213C207.368 176.192 202.47 177.589 197.325 178.405L149.278 186.024L132 77.0681L180.047 69.4488C185.192 68.6329 190.282 68.4462 195.316 68.8889C200.351 69.3316 205.167 70.352 209.764 71.95C214.403 73.4895 218.745 75.5935 222.788 78.2618C226.881 80.9222 230.509 84.0702 233.671 87.7056C236.875 91.2826 239.564 95.3552 241.736 99.9233C243.9 104.441 245.402 109.348 246.242 114.644ZM215.75 119.48C214.814 113.578 213.194 108.095 210.892 103.031C208.631 97.9076 205.668 93.5684 202.001 90.0129C198.335 86.4575 193.968 83.8663 188.901 82.2394C183.884 80.6045 178.122 80.3031 171.615 81.335L163.671 82.5949L177.637 170.668L185.582 169.408C191.988 168.392 197.324 166.331 201.589 163.224C205.896 160.059 209.243 156.219 211.629 151.703C214.058 147.129 215.584 142.078 216.207 136.55C216.83 131.021 216.678 125.331 215.75 119.48Z" fill="white"/>
<path d="M304.589 151.752C302.95 158.388 300.505 164.49 297.252 170.057C294.015 175.561 290.161 180.443 285.689 184.703C281.28 188.978 276.357 192.624 270.918 195.64C265.495 198.592 259.746 200.827 253.672 202.344C247.66 203.877 241.394 204.677 234.874 204.743C228.432 204.761 221.987 203.974 215.541 202.382L155.341 187.516L189.055 51L249.255 65.8668C255.701 67.4588 261.771 69.7624 267.463 72.7777C273.156 75.7929 278.306 79.3781 282.913 83.5333C287.598 87.6408 291.653 92.2633 295.078 97.4008C298.567 102.554 301.267 108.049 303.178 113.885C305.168 119.674 306.307 125.789 306.594 132.23C306.896 138.608 306.228 145.116 304.589 151.752ZM266.384 142.317C268.21 134.922 269.026 127.68 268.832 120.591C268.717 113.455 267.388 106.891 264.844 100.898C262.301 94.9053 258.457 89.698 253.313 85.2759C248.232 80.8695 241.615 77.6595 233.462 75.6461L223.507 73.1878L196.256 183.538L206.21 185.996C214.236 187.978 221.524 188.202 228.072 186.668C234.699 185.086 240.533 182.235 245.573 178.115C250.693 173.948 254.989 168.772 258.46 162.589C261.932 156.405 264.573 149.648 266.384 142.317Z" fill="#111111"/>
<ellipse cx="154.5" cy="214.5" rx="10.5" ry="23.5" fill="#111111"/>
<ellipse cx="125.5" cy="214.5" rx="8.5" ry="18.5" fill="#111111"/>
<path d="M129 247C127.167 250.167 119.2 258.2 102 265C84.8 271.8 74.1667 267.833 71 265" stroke="#111111" stroke-width="6"/>
<ellipse cx="71.5" cy="278" rx="5.5" ry="16" fill="#111111"/>
<path d="M222.708 277.32C222.708 279.202 222.457 280.97 221.955 282.623C221.453 284.276 220.752 285.803 219.852 287.204C218.974 288.606 217.907 289.872 216.651 291.001C215.396 292.11 214.016 293.051 212.509 293.825C211.024 294.599 209.424 295.196 207.708 295.614C206.014 296.032 204.267 296.242 202.468 296.242C200.669 296.242 198.922 296.032 197.227 295.614C195.533 295.196 193.933 294.599 192.426 293.825C190.941 293.051 189.571 292.11 188.316 291.001C187.06 289.872 185.983 288.606 185.084 287.204C184.205 285.803 183.515 284.276 183.012 282.623C182.51 280.949 182.259 279.182 182.259 277.32C182.259 275.458 182.51 273.701 183.012 272.048C183.515 270.374 184.205 268.837 185.084 267.435C185.983 266.033 187.06 264.778 188.316 263.67C189.571 262.54 190.941 261.588 192.426 260.814C193.933 260.04 195.533 259.444 197.227 259.025C198.922 258.607 200.669 258.398 202.468 258.398C204.267 258.398 206.014 258.607 207.708 259.025C209.424 259.444 211.024 260.04 212.509 260.814C214.016 261.588 215.396 262.54 216.651 263.67C217.907 264.778 218.974 266.033 219.852 267.435C220.752 268.837 221.453 270.374 221.955 272.048C222.457 273.701 222.708 275.458 222.708 277.32ZM211.913 277.32C211.913 276.316 211.85 275.259 211.725 274.15C211.62 273.021 211.432 271.922 211.16 270.855C210.888 269.768 210.511 268.732 210.03 267.749C209.57 266.745 208.995 265.877 208.304 265.144C207.614 264.391 206.788 263.795 205.825 263.356C204.863 262.896 203.744 262.665 202.468 262.665C201.254 262.665 200.177 262.896 199.236 263.356C198.294 263.816 197.468 264.433 196.757 265.207C196.066 265.96 195.481 266.839 194.999 267.843C194.539 268.847 194.163 269.893 193.87 270.981C193.577 272.048 193.368 273.136 193.242 274.244C193.117 275.332 193.054 276.357 193.054 277.32C193.054 278.282 193.117 279.318 193.242 280.426C193.368 281.514 193.577 282.602 193.87 283.69C194.163 284.778 194.539 285.824 194.999 286.828C195.481 287.811 196.066 288.69 196.757 289.464C197.468 290.217 198.294 290.823 199.236 291.284C200.177 291.744 201.254 291.974 202.468 291.974C203.723 291.974 204.832 291.754 205.794 291.315C206.756 290.855 207.583 290.248 208.273 289.495C208.984 288.742 209.57 287.874 210.03 286.89C210.491 285.907 210.857 284.872 211.129 283.784C211.422 282.696 211.62 281.598 211.725 280.489C211.85 279.38 211.913 278.324 211.913 277.32ZM267.706 277.32C267.706 279.202 267.455 280.97 266.953 282.623C266.451 284.276 265.75 285.803 264.851 287.204C263.972 288.606 262.905 289.872 261.65 291.001C260.395 292.11 259.014 293.051 257.508 293.825C256.022 294.599 254.422 295.196 252.707 295.614C251.012 296.032 249.265 296.242 247.466 296.242C245.667 296.242 243.92 296.032 242.226 295.614C240.531 295.196 238.931 294.599 237.425 293.825C235.939 293.051 234.569 292.11 233.314 291.001C232.059 289.872 230.981 288.606 230.082 287.204C229.203 285.803 228.513 284.276 228.011 282.623C227.509 280.949 227.258 279.182 227.258 277.32C227.258 275.458 227.509 273.701 228.011 272.048C228.513 270.374 229.203 268.837 230.082 267.435C230.981 266.033 232.059 264.778 233.314 263.67C234.569 262.54 235.939 261.588 237.425 260.814C238.931 260.04 240.531 259.444 242.226 259.025C243.92 258.607 245.667 258.398 247.466 258.398C249.265 258.398 251.012 258.607 252.707 259.025C254.422 259.444 256.022 260.04 257.508 260.814C259.014 261.588 260.395 262.54 261.65 263.67C262.905 264.778 263.972 266.033 264.851 267.435C265.75 268.837 266.451 270.374 266.953 272.048C267.455 273.701 267.706 275.458 267.706 277.32ZM256.912 277.32C256.912 276.316 256.849 275.259 256.723 274.15C256.619 273.021 256.43 271.922 256.158 270.855C255.886 269.768 255.51 268.732 255.029 267.749C254.569 266.745 253.993 265.877 253.303 265.144C252.613 264.391 251.786 263.795 250.824 263.356C249.862 262.896 248.742 262.665 247.466 262.665C246.253 262.665 245.176 262.896 244.234 263.356C243.293 263.816 242.466 264.433 241.755 265.207C241.065 265.96 240.479 266.839 239.998 267.843C239.538 268.847 239.161 269.893 238.868 270.981C238.575 272.048 238.366 273.136 238.241 274.244C238.115 275.332 238.052 276.357 238.052 277.32C238.052 278.282 238.115 279.318 238.241 280.426C238.366 281.514 238.575 282.602 238.868 283.69C239.161 284.778 239.538 285.824 239.998 286.828C240.479 287.811 241.065 288.69 241.755 289.464C242.466 290.217 243.293 290.823 244.234 291.284C245.176 291.744 246.253 291.974 247.466 291.974C248.721 291.974 249.83 291.754 250.793 291.315C251.755 290.855 252.581 290.248 253.272 289.495C253.983 288.742 254.569 287.874 255.029 286.89C255.489 285.907 255.855 284.872 256.127 283.784C256.42 282.696 256.619 281.598 256.723 280.489C256.849 279.38 256.912 278.324 256.912 277.32ZM305.236 262.477L299.274 272.362C299.023 271.525 298.699 270.584 298.301 269.538C297.904 268.492 297.412 267.519 296.826 266.619C296.241 265.699 295.54 264.935 294.724 264.329C293.908 263.701 292.967 263.387 291.9 263.387C290.917 263.387 290.059 263.638 289.327 264.14C288.615 264.642 288.009 265.301 287.507 266.117C287.005 266.912 286.586 267.822 286.252 268.847C285.938 269.851 285.687 270.876 285.498 271.922C285.331 272.947 285.216 273.941 285.153 274.903C285.09 275.845 285.059 276.661 285.059 277.351V295.52H274.421V259.276H278.501L282.8 267.718C283.386 266.358 284.055 265.113 284.808 263.983C285.561 262.833 286.429 261.85 287.413 261.034C288.396 260.197 289.505 259.548 290.739 259.088C291.994 258.628 293.406 258.398 294.975 258.398C295.791 258.398 296.701 258.471 297.705 258.617C298.709 258.743 299.692 258.973 300.655 259.308C301.617 259.622 302.506 260.04 303.322 260.563C304.138 261.086 304.776 261.724 305.236 262.477ZM320.832 250.521C320.832 251.316 320.675 252.07 320.361 252.781C320.068 253.492 319.66 254.109 319.137 254.632C318.614 255.155 317.997 255.574 317.286 255.887C316.575 256.18 315.822 256.327 315.027 256.327C314.232 256.327 313.479 256.18 312.767 255.887C312.077 255.574 311.47 255.155 310.947 254.632C310.424 254.109 310.006 253.492 309.692 252.781C309.399 252.07 309.253 251.316 309.253 250.521C309.253 249.727 309.399 248.984 309.692 248.294C310.006 247.582 310.424 246.965 310.947 246.442C311.47 245.919 312.077 245.511 312.767 245.218C313.479 244.905 314.232 244.748 315.027 244.748C315.822 244.748 316.575 244.905 317.286 245.218C317.997 245.511 318.614 245.919 319.137 246.442C319.66 246.965 320.068 247.582 320.361 248.294C320.675 248.984 320.832 249.727 320.832 250.521ZM320.361 295.52H309.724V259.308H320.361V295.52Z" fill="black"/>
</svg>
