<svg width="318" height="318" viewBox="0 0 318 318" fill="none" xmlns="http://www.w3.org/2000/svg">
<rect width="318" height="318" rx="60" fill="#E0F931"/>
<path d="M214.242 97.6445C215.082 102.941 215.176 108.097 214.524 113.113C213.863 118.079 212.567 122.783 210.634 127.227C208.752 131.662 206.305 135.799 203.294 139.638C200.275 143.426 196.802 146.795 192.874 149.745C188.997 152.687 184.712 155.176 180.019 157.213C175.368 159.192 170.47 160.589 165.325 161.405L117.278 169.024L100 60.0681L148.047 52.4488C153.192 51.6329 158.282 51.4462 163.316 51.8889C168.351 52.3316 173.167 53.352 177.764 54.95C182.403 56.4895 186.745 58.5935 190.788 61.2618C194.881 63.9222 198.509 67.0702 201.671 70.7056C204.875 74.2826 207.564 78.3552 209.736 82.9233C211.9 87.4409 213.402 92.348 214.242 97.6445ZM183.75 102.48C182.814 96.5782 181.194 91.0951 178.892 86.0306C176.631 80.9076 173.668 76.5684 170.001 73.0129C166.335 69.4575 161.968 66.8663 156.901 65.2394C151.884 63.6045 146.122 63.3031 139.615 64.335L131.671 65.5949L145.637 153.668L153.582 152.408C159.988 151.392 165.324 149.331 169.589 146.224C173.896 143.059 177.243 139.219 179.629 134.703C182.058 130.129 183.584 125.078 184.207 119.55C184.83 114.021 184.678 108.331 183.75 102.48Z" fill="white"/>
<path d="M272.589 134.752C270.95 141.388 268.505 147.49 265.252 153.057C262.015 158.561 258.161 163.443 253.689 167.703C249.28 171.978 244.357 175.624 238.918 178.64C233.495 181.592 227.746 183.827 221.672 185.344C215.66 186.877 209.394 187.677 202.874 187.743C196.432 187.761 189.987 186.974 183.541 185.382L123.341 170.516L157.055 34L217.255 48.8668C223.701 50.4588 229.771 52.7624 235.463 55.7777C241.156 58.7929 246.306 62.3781 250.913 66.5333C255.598 70.6408 259.653 75.2633 263.078 80.4008C266.567 85.5539 269.267 91.0487 271.178 96.8853C273.168 102.674 274.307 108.789 274.594 115.23C274.896 121.608 274.228 128.116 272.589 134.752ZM234.384 125.317C236.21 117.922 237.026 110.68 236.832 103.591C236.717 96.455 235.388 89.8905 232.844 83.8979C230.301 77.9053 226.457 72.698 221.313 68.2759C216.232 63.8695 209.615 60.6595 201.462 58.6461L191.507 56.1878L164.256 166.538L174.21 168.996C182.236 170.978 189.524 171.202 196.072 169.668C202.699 168.086 208.533 165.235 213.574 161.115C218.693 156.948 222.989 151.772 226.46 145.589C229.932 139.405 232.573 132.648 234.384 125.317Z" fill="#111111"/>
<ellipse cx="122.5" cy="197.5" rx="10.5" ry="23.5" fill="#111111"/>
<ellipse cx="93.5" cy="197.5" rx="8.5" ry="18.5" fill="#111111"/>
<path d="M97 230C95.1667 233.167 87.2 241.2 70 248C52.8 254.8 42.1667 250.833 39 248" stroke="#111111" stroke-width="6"/>
<ellipse cx="39.5" cy="261" rx="5.5" ry="16" fill="#111111"/>
<path d="M190.708 260.32C190.708 262.202 190.457 263.97 189.955 265.623C189.453 267.276 188.752 268.803 187.852 270.204C186.974 271.606 185.907 272.872 184.651 274.001C183.396 275.11 182.016 276.051 180.509 276.825C179.024 277.599 177.424 278.196 175.708 278.614C174.014 279.032 172.267 279.242 170.468 279.242C168.669 279.242 166.922 279.032 165.227 278.614C163.533 278.196 161.933 277.599 160.426 276.825C158.941 276.051 157.571 275.11 156.316 274.001C155.06 272.872 153.983 271.606 153.084 270.204C152.205 268.803 151.515 267.276 151.012 265.623C150.51 263.949 150.259 262.182 150.259 260.32C150.259 258.458 150.51 256.701 151.012 255.048C151.515 253.374 152.205 251.837 153.084 250.435C153.983 249.033 155.06 247.778 156.316 246.67C157.571 245.54 158.941 244.588 160.426 243.814C161.933 243.04 163.533 242.444 165.227 242.025C166.922 241.607 168.669 241.398 170.468 241.398C172.267 241.398 174.014 241.607 175.708 242.025C177.424 242.444 179.024 243.04 180.509 243.814C182.016 244.588 183.396 245.54 184.651 246.67C185.907 247.778 186.974 249.033 187.852 250.435C188.752 251.837 189.453 253.374 189.955 255.048C190.457 256.701 190.708 258.458 190.708 260.32ZM179.913 260.32C179.913 259.316 179.85 258.259 179.725 257.15C179.62 256.021 179.432 254.922 179.16 253.855C178.888 252.768 178.511 251.732 178.03 250.749C177.57 249.745 176.995 248.877 176.304 248.144C175.614 247.391 174.788 246.795 173.825 246.356C172.863 245.896 171.744 245.665 170.468 245.665C169.254 245.665 168.177 245.896 167.236 246.356C166.294 246.816 165.468 247.433 164.757 248.207C164.066 248.96 163.481 249.839 162.999 250.843C162.539 251.847 162.163 252.893 161.87 253.981C161.577 255.048 161.368 256.136 161.242 257.244C161.117 258.332 161.054 259.357 161.054 260.32C161.054 261.282 161.117 262.318 161.242 263.426C161.368 264.514 161.577 265.602 161.87 266.69C162.163 267.778 162.539 268.824 162.999 269.828C163.481 270.811 164.066 271.69 164.757 272.464C165.468 273.217 166.294 273.823 167.236 274.284C168.177 274.744 169.254 274.974 170.468 274.974C171.723 274.974 172.832 274.754 173.794 274.315C174.756 273.855 175.583 273.248 176.273 272.495C176.984 271.742 177.57 270.874 178.03 269.89C178.491 268.907 178.857 267.872 179.129 266.784C179.422 265.696 179.62 264.598 179.725 263.489C179.85 262.38 179.913 261.324 179.913 260.32ZM235.706 260.32C235.706 262.202 235.455 263.97 234.953 265.623C234.451 267.276 233.75 268.803 232.851 270.204C231.972 271.606 230.905 272.872 229.65 274.001C228.395 275.11 227.014 276.051 225.508 276.825C224.022 277.599 222.422 278.196 220.707 278.614C219.012 279.032 217.265 279.242 215.466 279.242C213.667 279.242 211.92 279.032 210.226 278.614C208.531 278.196 206.931 277.599 205.425 276.825C203.939 276.051 202.569 275.11 201.314 274.001C200.059 272.872 198.981 271.606 198.082 270.204C197.203 268.803 196.513 267.276 196.011 265.623C195.509 263.949 195.258 262.182 195.258 260.32C195.258 258.458 195.509 256.701 196.011 255.048C196.513 253.374 197.203 251.837 198.082 250.435C198.981 249.033 200.059 247.778 201.314 246.67C202.569 245.54 203.939 244.588 205.425 243.814C206.931 243.04 208.531 242.444 210.226 242.025C211.92 241.607 213.667 241.398 215.466 241.398C217.265 241.398 219.012 241.607 220.707 242.025C222.422 242.444 224.022 243.04 225.508 243.814C227.014 244.588 228.395 245.54 229.65 246.67C230.905 247.778 231.972 249.033 232.851 250.435C233.75 251.837 234.451 253.374 234.953 255.048C235.455 256.701 235.706 258.458 235.706 260.32ZM224.912 260.32C224.912 259.316 224.849 258.259 224.723 257.15C224.619 256.021 224.43 254.922 224.158 253.855C223.886 252.768 223.51 251.732 223.029 250.749C222.569 249.745 221.993 248.877 221.303 248.144C220.613 247.391 219.786 246.795 218.824 246.356C217.862 245.896 216.742 245.665 215.466 245.665C214.253 245.665 213.176 245.896 212.234 246.356C211.293 246.816 210.466 247.433 209.755 248.207C209.065 248.96 208.479 249.839 207.998 250.843C207.538 251.847 207.161 252.893 206.868 253.981C206.575 255.048 206.366 256.136 206.241 257.244C206.115 258.332 206.052 259.357 206.052 260.32C206.052 261.282 206.115 262.318 206.241 263.426C206.366 264.514 206.575 265.602 206.868 266.69C207.161 267.778 207.538 268.824 207.998 269.828C208.479 270.811 209.065 271.69 209.755 272.464C210.466 273.217 211.293 273.823 212.234 274.284C213.176 274.744 214.253 274.974 215.466 274.974C216.721 274.974 217.83 274.754 218.793 274.315C219.755 273.855 220.581 273.248 221.272 272.495C221.983 271.742 222.569 270.874 223.029 269.89C223.489 268.907 223.855 267.872 224.127 266.784C224.42 265.696 224.619 264.598 224.723 263.489C224.849 262.38 224.912 261.324 224.912 260.32ZM273.236 245.477L267.274 255.362C267.023 254.525 266.699 253.584 266.301 252.538C265.904 251.492 265.412 250.519 264.826 249.619C264.241 248.699 263.54 247.935 262.724 247.329C261.908 246.701 260.967 246.387 259.9 246.387C258.917 246.387 258.059 246.638 257.327 247.14C256.615 247.642 256.009 248.301 255.507 249.117C255.005 249.912 254.586 250.822 254.252 251.847C253.938 252.851 253.687 253.876 253.498 254.922C253.331 255.947 253.216 256.941 253.153 257.903C253.09 258.845 253.059 259.661 253.059 260.351V278.52H242.421V242.276H246.501L250.8 250.718C251.386 249.358 252.055 248.113 252.808 246.983C253.561 245.833 254.429 244.85 255.413 244.034C256.396 243.197 257.505 242.548 258.739 242.088C259.994 241.628 261.406 241.398 262.975 241.398C263.791 241.398 264.701 241.471 265.705 241.617C266.709 241.743 267.692 241.973 268.655 242.308C269.617 242.622 270.506 243.04 271.322 243.563C272.138 244.086 272.776 244.724 273.236 245.477ZM288.832 233.521C288.832 234.316 288.675 235.07 288.361 235.781C288.068 236.492 287.66 237.109 287.137 237.632C286.614 238.155 285.997 238.574 285.286 238.887C284.575 239.18 283.822 239.327 283.027 239.327C282.232 239.327 281.479 239.18 280.767 238.887C280.077 238.574 279.47 238.155 278.947 237.632C278.424 237.109 278.006 236.492 277.692 235.781C277.399 235.07 277.253 234.316 277.253 233.521C277.253 232.727 277.399 231.984 277.692 231.294C278.006 230.582 278.424 229.965 278.947 229.442C279.47 228.919 280.077 228.511 280.767 228.218C281.479 227.905 282.232 227.748 283.027 227.748C283.822 227.748 284.575 227.905 285.286 228.218C285.997 228.511 286.614 228.919 287.137 229.442C287.66 229.965 288.068 230.582 288.361 231.294C288.675 231.984 288.832 232.727 288.832 233.521ZM288.361 278.52H277.724V242.308H288.361V278.52Z" fill="black"/>
</svg>
