<svg width="24" height="24" viewBox="0 0 24 24" fill="none" xmlns="http://www.w3.org/2000/svg">
<path id="Vector" d="M8.40612 21.7216V18.3226C8.4061 17.4581 9.12151 16.7556 10.0079 16.7498H13.2547C14.1453 16.7498 14.8673 17.454 14.8673 18.3226V21.7321C14.8671 22.4662 15.4678 23.0661 16.2202 23.0833H18.3847C20.5425 23.0833 22.2918 21.3772 22.2918 19.2726V9.60356C22.2802 8.77562 21.8817 7.99815 21.2095 7.4924L13.8067 1.67617C12.5098 0.663445 10.6662 0.663445 9.36935 1.67617L1.99903 7.50296C1.32429 8.00666 0.925058 8.78542 0.916748 9.61411V19.2726C0.916748 21.3772 2.66598 23.0833 4.82378 23.0833H6.98833C7.7594 23.0833 8.38447 22.4736 8.38447 21.7216" stroke="#CAC9CF" stroke-width="1.58333" stroke-linecap="round" stroke-linejoin="round"/>
</svg>
