<svg width="40" height="40" viewBox="0 0 40 40" fill="none" xmlns="http://www.w3.org/2000/svg">
<path fill-rule="evenodd" clip-rule="evenodd" d="M25.9436 5.05556C22.3364 2.87984 17.8605 2.84286 14.219 4.95869C10.7077 6.99895 8.49288 10.7385 8.34132 14.8319L8.33301 15.2881C8.44273 18.4241 9.49732 21.4497 11.3536 23.954C13.5719 26.9541 16.3037 29.5217 19.4176 31.5331C19.6152 31.653 19.839 31.7209 20.0688 31.7307C20.3076 31.6936 20.5377 31.6123 20.7477 31.4908C22.7874 30.1521 24.6661 28.5747 26.3455 26.7909C29.2552 23.7141 31.5829 19.734 31.6662 15.4998C31.6863 11.2377 29.5154 7.27559 25.9436 5.05556Z" fill="#95A621"/>
<ellipse cx="20.0002" cy="18.4615" rx="4.61538" ry="5.38462" fill="white"/>
<ellipse cx="19.8715" cy="9.67942" rx="1.53846" ry="1.92308" fill="white"/>
<ellipse cx="14.4863" cy="11.9871" rx="1.53846" ry="1.92308" transform="rotate(-30 14.4863 11.9871)" fill="white"/>
<ellipse cx="25.2556" cy="11.9872" rx="1.53846" ry="1.92308" transform="rotate(30 25.2556 11.9872)" fill="white"/>
<path opacity="0.4" d="M20.0003 36.6026C24.6027 36.6026 28.3337 35.8564 28.3337 34.9359C28.3337 34.0154 24.6027 33.2692 20.0003 33.2692C15.398 33.2692 11.667 34.0154 11.667 34.9359C11.667 35.8564 15.398 36.6026 20.0003 36.6026Z" fill="#95A621"/>
</svg>
