<svg width="162" height="63" viewBox="0 0 162 63" fill="none" xmlns="http://www.w3.org/2000/svg">
<rect width="162" height="63" fill="white"/>
<path d="M47.9159 32.6137C47.9159 34.0679 47.7226 35.4528 47.3359 36.7684C46.9492 38.0703 46.4038 39.2751 45.6996 40.3831C45.0091 41.4911 44.1806 42.4952 43.214 43.3955C42.2473 44.2818 41.1772 45.0366 40.0034 45.6597C38.8434 46.283 37.5937 46.7677 36.2542 47.114C34.9286 47.4463 33.5615 47.6126 32.153 47.6126H19V17.6978H32.153C33.5615 17.6978 34.9286 17.864 36.2542 18.1964C37.5799 18.5288 38.8228 19.0066 39.9827 19.6298C41.1565 20.2392 42.2266 20.987 43.1933 21.8734C44.1737 22.7598 45.0091 23.7569 45.6996 24.8649C46.4038 25.959 46.9492 27.1639 47.3359 28.4796C47.7226 29.7814 47.9159 31.1594 47.9159 32.6137ZM39.5684 32.6137C39.5684 30.9933 39.3682 29.456 38.9677 28.0018C38.581 26.5337 37.9734 25.2457 37.1449 24.1378C36.3164 23.0298 35.2601 22.1504 33.9758 21.4995C32.7054 20.8486 31.1795 20.5231 29.3981 20.5231H27.2232V44.7043H29.3981C31.1519 44.7043 32.6639 44.3788 33.9344 43.7278C35.2187 43.063 36.2749 42.1767 37.1035 41.0688C37.9458 39.9469 38.5673 38.6589 38.9677 37.2046C39.3682 35.7506 39.5684 34.2202 39.5684 32.6137ZM77.5775 35.5635C77.5775 36.81 77.4118 37.9803 77.0804 39.0744C76.749 40.1684 76.2863 41.1795 75.6926 42.1074C75.1125 43.0353 74.4084 43.8732 73.5798 44.6211C72.7513 45.355 71.8399 45.9783 70.8456 46.4908C69.8652 47.0032 68.8088 47.3979 67.6765 47.6749C66.558 47.952 65.405 48.0904 64.2174 48.0904C63.0297 48.0904 61.8767 47.952 60.7582 47.6749C59.6396 47.3979 58.5834 47.0032 57.5891 46.4908C56.6087 45.9783 55.7041 45.355 54.8756 44.6211C54.0471 43.8732 53.3359 43.0353 52.7421 42.1074C52.1621 41.1795 51.7064 40.1684 51.375 39.0744C51.0437 37.9664 50.8779 36.7962 50.8779 35.5635C50.8779 34.331 51.0437 33.1676 51.375 32.0735C51.7064 30.9655 52.1621 29.9477 52.7421 29.0197C53.3359 28.0918 54.0471 27.2608 54.8756 26.5268C55.7041 25.7789 56.6087 25.1488 57.5891 24.6364C58.5834 24.1239 59.6396 23.7292 60.7582 23.4522C61.8767 23.1752 63.0297 23.0368 64.2174 23.0368C65.405 23.0368 66.558 23.1752 67.6765 23.4522C68.8088 23.7292 69.8652 24.1239 70.8456 24.6364C71.8399 25.1488 72.7513 25.7789 73.5798 26.5268C74.4084 27.2608 75.1125 28.0918 75.6926 29.0197C76.2863 29.9477 76.749 30.9655 77.0804 32.0735C77.4118 33.1676 77.5775 34.331 77.5775 35.5635ZM70.4521 35.5635C70.4521 34.8988 70.4107 34.1995 70.3278 33.4654C70.2588 32.7176 70.1344 31.9904 69.955 31.2841C69.7755 30.564 69.5268 29.8783 69.2093 29.2275C68.9055 28.5627 68.5257 27.9879 68.07 27.5032C67.6143 27.0046 67.0689 26.6099 66.4337 26.3191C65.7985 26.0144 65.0597 25.862 64.2174 25.862C63.4164 25.862 62.7052 26.0144 62.0839 26.3191C61.4624 26.6238 60.917 27.0323 60.4476 27.5447C59.9919 28.0433 59.6052 28.625 59.2875 29.2898C58.9837 29.9546 58.7353 30.6471 58.5419 31.3672C58.3486 32.0735 58.2105 32.7937 58.1277 33.5277C58.0448 34.2479 58.0033 34.9265 58.0033 35.5635C58.0033 36.2006 58.0448 36.8862 58.1277 37.6203C58.2105 38.3404 58.3486 39.0606 58.5419 39.7808C58.7353 40.5009 58.9837 41.1933 59.2875 41.8581C59.6052 42.5091 59.9919 43.0908 60.4476 43.6032C60.917 44.1018 61.4624 44.5033 62.0839 44.808C62.7052 45.1127 63.4164 45.265 64.2174 45.265C65.0459 45.265 65.7778 45.1197 66.413 44.8288C67.0481 44.5241 67.5936 44.1225 68.0493 43.6239C68.5189 43.1253 68.9055 42.5506 69.2093 41.8997C69.5131 41.2488 69.7548 40.5633 69.9342 39.8431C70.1276 39.1228 70.2588 38.3958 70.3278 37.6617C70.4107 36.9278 70.4521 36.2284 70.4521 35.5635ZM107.281 35.5635C107.281 36.81 107.115 37.9803 106.783 39.0744C106.452 40.1684 105.989 41.1795 105.396 42.1074C104.816 43.0353 104.111 43.8732 103.283 44.6211C102.454 45.355 101.543 45.9783 100.549 46.4908C99.5683 47.0032 98.5118 47.3979 97.3795 47.6749C96.2611 47.952 95.1079 48.0904 93.9204 48.0904C92.7328 48.0904 91.5797 47.952 90.4613 47.6749C89.3427 47.3979 88.2864 47.0032 87.2921 46.4908C86.3117 45.9783 85.4072 45.355 84.5786 44.6211C83.7501 43.8732 83.0389 43.0353 82.4452 42.1074C81.8652 41.1795 81.4095 40.1684 81.0781 39.0744C80.7467 37.9664 80.581 36.7962 80.581 35.5635C80.581 34.331 80.7467 33.1676 81.0781 32.0735C81.4095 30.9655 81.8652 29.9477 82.4452 29.0197C83.0389 28.0918 83.7501 27.2608 84.5786 26.5268C85.4072 25.7789 86.3117 25.1488 87.2921 24.6364C88.2864 24.1239 89.3427 23.7292 90.4613 23.4522C91.5797 23.1752 92.7328 23.0368 93.9204 23.0368C95.1079 23.0368 96.2611 23.1752 97.3795 23.4522C98.5118 23.7292 99.5683 24.1239 100.549 24.6364C101.543 25.1488 102.454 25.7789 103.283 26.5268C104.111 27.2608 104.816 28.0918 105.396 29.0197C105.989 29.9477 106.452 30.9655 106.783 32.0735C107.115 33.1676 107.281 34.331 107.281 35.5635ZM100.155 35.5635C100.155 34.8988 100.114 34.1995 100.031 33.4654C99.9618 32.7176 99.8375 31.9904 99.658 31.2841C99.4786 30.564 99.2299 29.8783 98.9124 29.2275C98.6086 28.5627 98.2288 27.9879 97.7731 27.5032C97.3174 27.0046 96.7719 26.6099 96.1367 26.3191C95.5016 26.0144 94.7628 25.862 93.9204 25.862C93.1195 25.862 92.4083 26.0144 91.787 26.3191C91.1655 26.6238 90.6201 27.0323 90.1505 27.5447C89.6948 28.0433 89.3083 28.625 88.9906 29.2898C88.6868 29.9546 88.4383 30.6471 88.245 31.3672C88.0516 32.0735 87.9134 32.7937 87.8307 33.5277C87.7478 34.2479 87.7064 34.9265 87.7064 35.5635C87.7064 36.2006 87.7478 36.8862 87.8307 37.6203C87.9134 38.3404 88.0516 39.0606 88.245 39.7808C88.4383 40.5009 88.6868 41.1933 88.9906 41.8581C89.3083 42.5091 89.6948 43.0908 90.1505 43.6032C90.6201 44.1018 91.1655 44.5033 91.787 44.808C92.4083 45.1127 93.1195 45.265 93.9204 45.265C94.7489 45.265 95.4809 45.1197 96.116 44.8288C96.7512 44.5241 97.2966 44.1225 97.7523 43.6239C98.2219 43.1253 98.6086 42.5506 98.9124 41.8997C99.216 41.2488 99.4578 40.5633 99.6373 39.8431C99.8306 39.1228 99.9618 38.3958 100.031 37.6617C100.114 36.9278 100.155 36.2284 100.155 35.5635ZM132.054 25.7374L128.118 32.2813C127.953 31.7272 127.738 31.1041 127.476 30.4116C127.214 29.7191 126.889 29.0751 126.503 28.4796C126.116 27.8702 125.653 27.3647 125.115 26.9631C124.576 26.5476 123.955 26.3398 123.25 26.3398C122.602 26.3398 122.035 26.506 121.552 26.8384C121.083 27.1708 120.682 27.6071 120.351 28.1472C120.019 28.6735 119.743 29.2759 119.522 29.9546C119.315 30.6193 119.149 31.2979 119.025 31.9904C118.915 32.669 118.839 33.327 118.797 33.964C118.756 34.5871 118.735 35.1273 118.735 35.5843V47.6126H111.713V23.6184H114.406L117.244 29.2067C117.63 28.3065 118.072 27.4824 118.569 26.7346C119.066 25.9728 119.639 25.3219 120.289 24.7818C120.938 24.2278 121.669 23.7985 122.484 23.4938C123.313 23.1891 124.245 23.0368 125.281 23.0368C125.819 23.0368 126.42 23.0852 127.083 23.1822C127.745 23.2653 128.394 23.4176 129.03 23.6392C129.665 23.8469 130.252 24.1239 130.79 24.4702C131.329 24.8164 131.75 25.2388 132.054 25.7374ZM142.348 17.8224C142.348 18.3487 142.245 18.8473 142.038 19.3182C141.844 19.7891 141.575 20.1976 141.23 20.5439C140.885 20.8901 140.477 21.1671 140.008 21.3748C139.538 21.5687 139.041 21.6657 138.516 21.6657C137.992 21.6657 137.495 21.5687 137.025 21.3748C136.569 21.1671 136.169 20.8901 135.824 20.5439C135.478 20.1976 135.202 19.7891 134.995 19.3182C134.802 18.8473 134.705 18.3487 134.705 17.8224C134.705 17.2962 134.802 16.8045 134.995 16.3475C135.202 15.8766 135.478 15.468 135.824 15.1218C136.169 14.7756 136.569 14.5055 137.025 14.3116C137.495 14.1039 137.992 14 138.516 14C139.041 14 139.538 14.1039 140.008 14.3116C140.477 14.5055 140.885 14.7756 141.23 15.1218C141.575 15.468 141.844 15.8766 142.038 16.3475C142.245 16.8045 142.348 17.2962 142.348 17.8224ZM142.038 47.6126H135.016V23.6392H142.038V47.6126Z" fill="black"/>
</svg>
