<svg width="20" height="24" viewBox="0 0 20 24" fill="none" xmlns="http://www.w3.org/2000/svg">
<path id="Vector" d="M9.99996 11.5972C8.87535 11.5974 7.77594 11.264 6.84078 10.6393C5.90562 10.0146 5.17671 9.12666 4.74623 8.08769C4.31576 7.04872 4.20304 5.90543 4.42235 4.80241C4.64166 3.69938 5.18314 2.68616 5.97831 1.89089C6.77348 1.09561 7.78662 0.553992 8.88962 0.334534C9.99262 0.115076 11.1359 0.227632 12.1749 0.657969C13.214 1.08831 14.1021 1.81709 14.7269 2.75217C15.3517 3.68724 15.6852 4.7866 15.6852 5.91122C15.6837 7.41866 15.0843 8.86396 14.0185 9.92996C12.9526 10.996 11.5074 11.5956 9.99996 11.5972ZM9.99996 1.86497C9.19947 1.86481 8.41691 2.10206 7.75126 2.54669C7.08561 2.99132 6.56678 3.62337 6.26037 4.3629C5.95396 5.10243 5.87375 5.91622 6.02989 6.70134C6.18602 7.48646 6.57147 8.20764 7.13751 8.77367C7.70354 9.3397 8.42472 9.72516 9.20984 9.88129C9.99496 10.0374 10.8087 9.95721 11.5483 9.65081C12.2878 9.3444 12.9199 8.82556 13.3645 8.15992C13.8091 7.49427 14.0464 6.71171 14.0462 5.91122C14.045 4.83846 13.6183 3.81 12.8597 3.05144C12.1012 2.29289 11.0727 1.8662 9.99996 1.86497ZM19.0763 23.7747H0.92361L0.104126 22.9552C0.104126 21.6557 0.36009 20.3689 0.857402 19.1683C1.35471 17.9677 2.08364 16.8767 3.00255 15.9578C3.92146 15.0389 5.01237 14.31 6.21299 13.8127C7.41361 13.3154 8.70042 13.0594 9.99996 13.0594C11.2995 13.0594 12.5863 13.3154 13.7869 13.8127C14.9876 14.31 16.0785 15.0389 16.9974 15.9578C17.9163 16.8767 18.6452 17.9677 19.1425 19.1683C19.6398 20.3689 19.8958 21.6557 19.8958 22.9552L19.0763 23.7747ZM1.78186 22.1358H18.2181C18.0177 20.0952 17.0653 18.2023 15.5463 16.8251C14.0273 15.448 12.0503 14.6852 9.99996 14.6852C7.94963 14.6852 5.97263 15.448 4.45363 16.8251C2.93462 18.2023 1.98226 20.0952 1.78186 22.1358Z" fill="#CAC9CF"/>
</svg>
