<svg width="36" height="36" viewBox="0 0 36 36" fill="none" xmlns="http://www.w3.org/2000/svg">
<g id="my-location">
<path id="Vector" d="M17.9996 11.3448V5.53845M17.9996 30.4615V24.6552M5.53809 18.1702H11.3444M24.6548 18.1702H30.4612M27.9393 18.1701C27.9393 23.6597 23.4892 28.1098 17.9996 28.1098C12.5101 28.1098 8.05991 23.6597 8.05991 18.1701C8.05991 12.6806 12.5101 8.23042 17.9996 8.23042C23.4892 8.23042 27.9393 12.6806 27.9393 18.1701ZM17.9996 15.6942C16.6322 15.6942 15.5236 16.8027 15.5236 18.1702C15.5236 19.5376 16.6322 20.6461 17.9996 20.6461C19.3671 20.6461 20.4756 19.5376 20.4756 18.1702C20.4756 16.8027 19.3671 15.6942 17.9996 15.6942Z" stroke="#9B99A3" stroke-width="1.38462" stroke-miterlimit="10"/>
</g>
</svg>
