<svg width="26" height="26" viewBox="0 0 26 26" fill="none" xmlns="http://www.w3.org/2000/svg">
<g id="29-Write">
<path id="Vector" d="M22.5292 13.5434V18.7629C22.5268 20.5931 21.7986 22.3477 20.5045 23.6419C19.2103 24.9361 17.4557 25.6642 15.6254 25.6667H7.22241C5.39216 25.6642 3.63757 24.9361 2.34339 23.6419C1.0492 22.3477 0.321052 20.5931 0.318604 18.7629V10.3599C0.321052 8.52961 1.0492 6.77502 2.34339 5.48084C3.63757 4.18665 5.39216 3.4585 7.22241 3.45605H12.4419C12.6873 3.45605 12.9227 3.55356 13.0963 3.72711C13.2698 3.90066 13.3673 4.13605 13.3673 4.3815C13.3673 4.62694 13.2698 4.86233 13.0963 5.03588C12.9227 5.20944 12.6873 5.30694 12.4419 5.30694H7.22241C5.88304 5.30939 4.59923 5.84253 3.65216 6.78961C2.70508 7.73668 2.17194 9.02049 2.16949 10.3599V18.7629C2.17194 20.1022 2.70508 21.386 3.65216 22.3331C4.59923 23.2802 5.88304 23.8133 7.22241 23.8158H15.6254C16.9648 23.8133 18.2486 23.2802 19.1957 22.3331C20.1428 21.386 20.6759 20.1022 20.6783 18.7629V13.5434C20.6783 13.2979 20.7758 13.0625 20.9494 12.889C21.123 12.7154 21.3583 12.6179 21.6038 12.6179C21.8492 12.6179 22.0846 12.7154 22.2582 12.889C22.4317 13.0625 22.5292 13.2979 22.5292 13.5434Z" fill="#CAC9CF"/>
<path id="Vector_2" d="M24.8059 1.1795C24.2376 0.636434 23.4819 0.333374 22.6959 0.333374C21.9098 0.333374 21.1541 0.636434 20.5858 1.1795L10.5541 11.202C10.4324 11.3286 10.3462 11.485 10.3042 11.6555L9.47128 15.4128C9.43828 15.5643 9.44387 15.7216 9.48752 15.8704C9.53118 16.0192 9.61152 16.1546 9.72115 16.2642C9.89202 16.4386 10.1249 16.5384 10.369 16.5418C10.4365 16.5515 10.505 16.5515 10.5726 16.5418L14.3299 15.7089C14.5003 15.6669 14.6567 15.5807 14.7833 15.4591L24.8059 5.39951C25.0834 5.1227 25.3037 4.79383 25.4539 4.43176C25.6042 4.06969 25.6816 3.68152 25.6816 3.28951C25.6816 2.89749 25.6042 2.50933 25.4539 2.14725C25.3037 1.78518 25.0834 1.45632 24.8059 1.1795ZM23.501 4.09464L13.6635 13.9321L11.5905 14.3948L12.0533 12.3218L21.8907 2.53064C22.1087 2.32567 22.3966 2.21155 22.6959 2.21155C22.9951 2.21155 23.283 2.32567 23.501 2.53064C23.7008 2.74199 23.8121 3.0218 23.8121 3.31264C23.8121 3.60348 23.7008 3.8833 23.501 4.09464Z" fill="#CAC9CF"/>
</g>
</svg>
