<svg width="19" height="19" viewBox="0 0 19 19" fill="none" xmlns="http://www.w3.org/2000/svg">
<g id="save" clip-path="url(#clip0_2796_6698)">
<path id="Vector" d="M15.0417 10.2917V14.25C15.0417 14.6854 14.6854 15.0417 14.25 15.0417H4.75C4.31458 15.0417 3.95833 14.6854 3.95833 14.25V10.2917C3.95833 9.85625 3.60208 9.5 3.16667 9.5C2.73125 9.5 2.375 9.85625 2.375 10.2917V15.0417C2.375 15.9125 3.0875 16.625 3.95833 16.625H15.0417C15.9125 16.625 16.625 15.9125 16.625 15.0417V10.2917C16.625 9.85625 16.2688 9.5 15.8333 9.5C15.3979 9.5 15.0417 9.85625 15.0417 10.2917ZM10.2917 10.0304L11.78 8.54208C12.0887 8.23333 12.5875 8.23333 12.8963 8.54208C13.205 8.85083 13.205 9.34958 12.8963 9.65833L10.0542 12.5004C9.74542 12.8092 9.24667 12.8092 8.93792 12.5004L6.09583 9.65833C5.78708 9.34958 5.78708 8.85083 6.09583 8.54208C6.40458 8.23333 6.90333 8.23333 7.21208 8.54208L8.70833 10.0304V3.16667C8.70833 2.73125 9.06458 2.375 9.5 2.375C9.93542 2.375 10.2917 2.73125 10.2917 3.16667V10.0304Z" fill="#111111"/>
</g>
<defs>
<clipPath id="clip0_2796_6698">
<rect width="19" height="19" fill="white"/>
</clipPath>
</defs>
</svg>
