<svg width="22" height="24" viewBox="0 0 22 24" fill="none" xmlns="http://www.w3.org/2000/svg">
<g id="Group 1171275890">
<path id="Vector" fill-rule="evenodd" clip-rule="evenodd" d="M1.6842 10.2008C1.70168 5.05588 5.88666 0.899256 11.0316 0.916681C16.1765 0.934215 20.3332 5.11919 20.3158 10.2641V10.3696C20.2524 13.714 18.385 16.8052 16.0957 19.2212C14.7864 20.5808 13.3243 21.7845 11.7385 22.8082C11.3144 23.175 10.6855 23.175 10.2614 22.8082C7.8974 21.2695 5.82256 19.3268 4.13183 17.0689C2.62491 15.1001 1.76933 12.7104 1.6842 10.2325V10.2008Z" stroke="#CAC9CF" stroke-width="1.6799" stroke-linecap="round" stroke-linejoin="round"/>
<path id="Vector_2" d="M10.9995 13.3658C12.6485 13.3658 13.9853 12.029 13.9853 10.38C13.9853 8.73097 12.6485 7.39417 10.9995 7.39417C9.35048 7.39417 8.01367 8.73097 8.01367 10.38C8.01367 12.029 9.35048 13.3658 10.9995 13.3658Z" stroke="#CAC9CF" stroke-width="1.6799" stroke-linecap="round" stroke-linejoin="round"/>
</g>
</svg>
