<svg width="12" height="12" viewBox="0 0 12 12" fill="none" xmlns="http://www.w3.org/2000/svg">
<g id="Group">
<path id="Vector" d="M6.57121 0.821576L7.87205 3.42968C7.96586 3.61941 8.14887 3.75144 8.36116 3.78254L11.275 4.207C11.4463 4.23102 11.6008 4.32115 11.7044 4.45743C11.8079 4.59372 11.8519 4.76493 11.8266 4.93317C11.8064 5.07262 11.7407 5.20185 11.6393 5.30137L9.52671 7.34694C9.37199 7.49156 9.3016 7.70294 9.33939 7.90948L9.85972 10.7886C9.91719 11.133 9.68739 11.4605 9.33939 11.5301C9.19697 11.5525 9.05101 11.5292 8.92312 11.4637L6.32145 10.1085C6.12878 10.0111 5.90013 10.0111 5.70746 10.1085L3.10579 11.4637C2.78532 11.6341 2.38496 11.5174 2.21082 11.2028C2.14483 11.0769 2.12115 10.9337 2.14317 10.7937L2.66351 7.91459C2.7013 7.70805 2.63091 7.49667 2.47619 7.35206L0.36363 5.30649C0.239694 5.18636 0.169922 5.02243 0.169922 4.85135C0.169922 4.68027 0.239694 4.51634 0.36363 4.39621C0.463471 4.29462 0.595671 4.22965 0.73827 4.21211L3.65214 3.78765C3.86443 3.75655 4.04744 3.62452 4.14125 3.43479L5.39526 0.821576C5.50492 0.59867 5.73656 0.45888 5.98844 0.463602H6.06649C6.28568 0.490929 6.47576 0.625744 6.57121 0.821576Z" fill="black"/>
<path id="Vector_2" d="M6.00415 10.0318C5.89019 10.031 5.78302 10.0685 5.68163 10.1197L3.08817 11.4715C2.77712 11.6283 2.38215 11.5023 2.21091 11.2028C2.14463 11.0789 2.12091 10.9372 2.14327 10.7988L2.6636 7.92481C2.69854 7.71694 2.62871 7.50532 2.47628 7.35717L0.358523 5.3116C0.103149 5.06007 0.103149 4.65284 0.358523 4.40132C0.458412 4.30263 0.587922 4.23809 0.72796 4.21722L3.65224 3.78765C3.87758 3.75494 4.03865 3.63034 4.14135 3.43479L5.41172 0.791619C5.50852 0.576601 5.83401 0.428011 6.00935 0.463596C6.00415 0.63747 6.00415 9.91413 6.00415 10.0318Z" fill="black"/>
</g>
</svg>
