<svg width="24" height="24" viewBox="0 0 24 24" fill="none" xmlns="http://www.w3.org/2000/svg">
<g clip-path="url(#clip0_3156_6855)">
<path d="M18.9196 2.07434L18.9196 2.07426C18.8712 2.00507 18.8068 1.94857 18.7319 1.90953C18.6571 1.87049 18.5739 1.85007 18.4895 1.85H18.4893H5.12205C4.95499 1.85 4.79872 1.92955 4.69992 2.06299L4.69975 2.06322L-0.0475159 8.50072L-0.0475983 8.50083C-0.113961 8.591 -0.15 8.70013 -0.15 8.8125C-0.15 10.2514 0.947545 11.4349 2.34831 11.5773V20.1077C2.34831 21.2703 3.29338 22.216 4.45543 22.216H19.0927C20.255 22.216 21.2001 21.2703 21.2001 20.1077V11.5428C22.4051 11.3131 23.3377 10.3054 23.4485 9.06148C23.4914 8.9822 23.5132 8.89298 23.5115 8.80241C23.5096 8.69832 23.4767 8.59717 23.417 8.51184C23.417 8.51183 23.417 8.51181 23.417 8.5118L18.9196 2.07434ZM4.27645 11.0518C4.51101 10.8798 4.71683 10.6724 4.88678 10.4374C5.39191 11.1375 6.21489 11.5947 7.14288 11.5947C8.07062 11.5947 8.89365 11.1378 9.39867 10.4379C9.63264 10.7629 9.93456 11.0344 10.2845 11.2328C10.7023 11.4698 11.1744 11.5945 11.6547 11.5947H11.6548C12.5827 11.5947 13.4058 11.1376 13.9108 10.4376C14.4161 11.1376 15.2388 11.5947 16.1667 11.5947C17.0945 11.5947 17.9178 11.1377 18.4227 10.4377C18.6176 10.7078 18.8598 10.9414 19.1381 11.1267C19.4451 11.3312 19.7893 11.4724 20.1506 11.5426V20.1076C20.1502 20.3882 20.0386 20.6573 19.8403 20.8557C19.6419 21.0541 19.373 21.1657 19.0926 21.166H18.6391V13.7847C18.6391 13.6455 18.5838 13.512 18.4854 13.4135C18.387 13.3151 18.2535 13.2597 18.1143 13.2597H13.492C13.3528 13.2597 13.2193 13.3151 13.1209 13.4135C13.0225 13.512 12.9672 13.6455 12.9672 13.7847V21.166H4.45559C4.17518 21.1657 3.90633 21.0541 3.70802 20.8557C3.50972 20.6573 3.39817 20.3882 3.39788 20.1076V11.4832C3.71357 11.3924 4.01105 11.2465 4.27645 11.0518ZM17.5895 21.166H14.0168V14.3097H17.5895V21.166ZM20.6788 10.545C19.7248 10.545 18.9477 9.76772 18.9477 8.81275C18.9477 8.67354 18.8924 8.54001 18.794 8.44155C18.6956 8.34308 18.5621 8.28775 18.4229 8.28775C18.2837 8.28775 18.1502 8.34308 18.0518 8.44155C17.9534 8.54001 17.8981 8.67354 17.8981 8.81275C17.8981 9.76775 17.1214 10.545 16.1669 10.545C15.2129 10.545 14.4358 9.76772 14.4358 8.81275C14.4358 8.67354 14.3805 8.54001 14.2821 8.44155C14.1837 8.34308 14.0502 8.28775 13.911 8.28775C13.7718 8.28775 13.6383 8.34308 13.5399 8.44155C13.4415 8.54001 13.3862 8.67354 13.3862 8.81275C13.3862 9.76775 12.6095 10.545 11.655 10.545C10.7008 10.545 9.92387 9.76774 9.92387 8.81275C9.92387 8.67354 9.8686 8.54001 9.77019 8.44155C9.67178 8.34308 9.53829 8.28775 9.39908 8.28775C9.25988 8.28775 9.12638 8.34308 9.02798 8.44155C8.92957 8.54001 8.8743 8.67354 8.8743 8.81275C8.8743 9.76774 8.09736 10.545 7.14313 10.545C6.18891 10.545 5.41197 9.76774 5.41197 8.81275C5.41197 8.67354 5.3567 8.54001 5.25829 8.44155C5.15988 8.34308 5.02639 8.28775 4.88718 8.28775C4.74798 8.28775 4.61448 8.34308 4.51608 8.44155C4.41767 8.54001 4.3624 8.67354 4.3624 8.81275C4.3624 9.76774 3.58546 10.545 2.63123 10.545C1.73176 10.545 0.989474 9.85433 0.907429 8.97509L5.38745 2.9H18.216L22.408 8.90051C22.3622 9.8149 21.6038 10.545 20.6788 10.545Z" fill="#CAC9CF" stroke="#CAC9CF" stroke-width="0.3"/>
<path d="M10.6719 13.2597H5.55935C5.42015 13.2597 5.28665 13.315 5.18825 13.4135C5.08984 13.5119 5.03457 13.6455 5.03457 13.7847V18.4724C5.03457 18.6116 5.08984 18.7452 5.18825 18.8436C5.28665 18.9421 5.42015 18.9974 5.55935 18.9974H10.6719C10.8111 18.9974 10.9446 18.9421 11.043 18.8436C11.1414 18.7452 11.1967 18.6116 11.1967 18.4724V13.7847C11.1967 13.6455 11.1414 13.5119 11.043 13.4135C10.9446 13.315 10.8111 13.2597 10.6719 13.2597ZM10.1471 17.9474H6.08414V14.3097H10.1471V17.9474Z" fill="#CAC9CF" stroke="#CAC9CF" stroke-width="0.3"/>
</g>
<defs>
<clipPath id="clip0_3156_6855">
<rect width="24" height="24" fill="white"/>
</clipPath>
</defs>
</svg>
