<svg width="20" height="22" viewBox="0 0 20 22" fill="none" xmlns="http://www.w3.org/2000/svg">
<path d="M13.9908 0.580062C14.3895 0.604749 14.6971 0.943038 14.6865 1.34513V2.4236C17.8535 2.72778 19.4737 4.4607 19.4737 7.57627V16.1948C19.4737 19.6606 17.4783 21.4212 13.5515 21.4212H6.4485C2.52173 21.4212 0.526306 19.6606 0.526306 16.1948V7.57627C0.526306 5.5023 1.24027 4.01825 2.7048 3.15179L2.80752 3.09383C3.01983 2.99573 3.26883 3.00472 3.4758 3.12367C3.71726 3.26246 3.85985 3.52697 3.84388 3.80648C3.8279 4.086 3.65612 4.33229 3.40045 4.44226C2.4302 5.01376 1.97253 6.00927 1.97253 7.57627V7.8528H15.3272C15.7266 7.8528 16.0503 8.17883 16.0503 8.581C16.0503 8.98317 15.7266 9.30919 15.3272 9.30919H1.97253V16.1948C1.97253 18.8403 3.2723 19.9372 6.4485 19.9556H13.5515C16.6819 19.9556 18.0183 18.831 18.0183 16.1856V7.56705C18.0183 5.26264 17.0023 4.1473 14.6865 3.87999V4.58053C14.6331 4.95392 14.3084 5.22651 13.9341 5.21229C13.5597 5.19806 13.2564 4.90161 13.2311 4.52522V1.2806L13.2445 1.16534C13.2743 1.0143 13.3512 0.875577 13.4654 0.770237C13.6082 0.638563 13.7975 0.570058 13.9908 0.580062ZM14.4074 15.3739L14.5239 15.3813C14.7238 15.4061 14.9112 15.4968 15.0559 15.6411C15.2295 15.8142 15.3272 16.0501 15.3272 16.2962C15.3272 16.8053 14.9174 17.218 14.4119 17.218C13.9064 17.218 13.4966 16.8053 13.4966 16.2962C13.4966 15.7871 13.9064 15.3744 14.4119 15.3744L14.4074 15.3739ZM10.0183 15.3744L10.1331 15.3816C10.5844 15.4385 10.9336 15.8263 10.9336 16.2962C10.9336 16.8053 10.5238 17.218 10.0183 17.218C9.51277 17.218 9.10297 16.8053 9.10297 16.2962C9.10297 15.7871 9.51277 15.3744 10.0183 15.3744ZM5.62946 15.3739L5.74587 15.3813C5.94573 15.4061 6.13316 15.4968 6.27787 15.6411C6.45151 15.8142 6.54919 16.0501 6.54919 16.2962C6.54919 16.8053 6.13938 17.218 5.63386 17.218C5.12833 17.218 4.71853 16.8053 4.71853 16.2962C4.71853 15.7871 5.12833 15.3744 5.63386 15.3744L5.62946 15.3739ZM14.4074 11.641L14.5239 11.6481C14.7238 11.673 14.9112 11.7637 15.0559 11.908C15.2295 12.0811 15.3272 12.317 15.3272 12.563C15.3272 13.0721 14.9174 13.4848 14.4119 13.4848C13.9064 13.4848 13.4966 13.0721 13.4966 12.563C13.4966 12.054 13.9064 11.6413 14.4119 11.6413L14.4074 11.641ZM10.0183 11.6413L10.1331 11.6484C10.5844 11.7053 10.9336 12.0931 10.9336 12.563C10.9336 13.0721 10.5238 13.4848 10.0183 13.4848C9.51277 13.4848 9.10297 13.0721 9.10297 12.563C9.10297 12.054 9.51277 11.6413 10.0183 11.6413ZM5.62946 11.641L5.74587 11.6481C5.94573 11.673 6.13316 11.7637 6.27787 11.908C6.45151 12.0811 6.54919 12.317 6.54919 12.563C6.54919 13.0721 6.13938 13.4848 5.63386 13.4848C5.12833 13.4848 4.71853 13.0721 4.71853 12.563C4.71853 12.054 5.12833 11.6413 5.63386 11.6413L5.62946 11.641ZM6.04118 0.690031C6.41397 0.690031 6.72726 0.972065 6.76887 1.34513V2.34985H10.9062C11.3055 2.34985 11.6293 2.67588 11.6293 3.07805C11.6293 3.48022 11.3055 3.80625 10.9062 3.80625H6.75056V4.53444C6.75058 4.72918 6.67314 4.91581 6.53554 5.05264C6.39795 5.18947 6.21166 5.2651 6.0183 5.26264L5.91256 5.25218C5.56803 5.19224 5.30882 4.88764 5.31343 4.52522V1.34513L5.33387 1.23613C5.41836 0.918479 5.70567 0.690031 6.04118 0.690031Z" fill="#CAC9CF"/>
</svg>
