<svg width="16" height="16" viewBox="0 0 16 16" fill="none" xmlns="http://www.w3.org/2000/svg">
<path id="Vector" fill-rule="evenodd" clip-rule="evenodd" d="M8.00264 0.665283C3.96002 0.665283 0.664062 3.95658 0.664062 7.99852C0.664062 12.0405 3.96069 15.3358 8.00264 15.3358C12.0446 15.3358 15.3345 12.0405 15.3345 7.99852C15.3345 3.95658 12.0446 0.665283 8.00264 0.665283ZM8.00264 1.9986C8.79087 1.99728 9.5716 2.15159 10.3001 2.45266C11.0285 2.75373 11.6904 3.19566 12.2477 3.75308C12.805 4.3105 13.2468 4.97246 13.5477 5.701C13.8486 6.42953 14.0027 7.2103 14.0012 7.99852C14.0028 8.78697 13.8488 9.56797 13.5479 10.2968C13.2471 11.0256 12.8054 11.6878 12.2481 12.2456C11.6909 12.8033 11.029 13.2456 10.3005 13.5471C9.57194 13.8486 8.79108 14.0033 8.00264 14.0024C7.21386 14.0034 6.43263 13.8488 5.70369 13.5474C4.97475 13.2461 4.31241 12.8039 3.7546 12.2462C3.19678 11.6885 2.75445 11.0262 2.45292 10.2974C2.15139 9.5685 1.99659 8.78731 1.99738 7.99852C1.99738 4.67723 4.68135 1.9986 8.00264 1.9986ZM7.99197 3.32258C7.90385 3.32345 7.81678 3.34177 7.73579 3.3765C7.6548 3.41122 7.5815 3.46166 7.52012 3.5249C7.45875 3.58813 7.41052 3.66291 7.37822 3.7449C7.34593 3.82689 7.33021 3.91447 7.33198 4.00257V7.99852C7.33235 8.08625 7.35003 8.17304 7.384 8.25392C7.41798 8.3348 7.46759 8.40818 7.52998 8.46985L10.1966 11.1378C10.2583 11.2013 10.332 11.2518 10.4134 11.2865C10.4949 11.3212 10.5824 11.3394 10.6709 11.3399C10.7594 11.3404 10.8471 11.3233 10.9289 11.2895C11.0108 11.2557 11.085 11.206 11.1474 11.1433C11.2098 11.0805 11.2591 11.006 11.2924 10.9239C11.3257 10.8419 11.3423 10.7541 11.3413 10.6656C11.3403 10.5771 11.3217 10.4897 11.2865 10.4085C11.2514 10.3272 11.2004 10.2538 11.1366 10.1925L8.66663 7.72253V4.00257C8.66842 3.91323 8.65224 3.82445 8.61904 3.74149C8.58583 3.65853 8.53629 3.58309 8.47336 3.51965C8.41042 3.45622 8.33537 3.40609 8.25268 3.37223C8.16998 3.33838 8.08132 3.32149 7.99197 3.32258Z" fill="#111111"/>
</svg>
