<svg width="22" height="22" viewBox="0 0 22 22" fill="none" xmlns="http://www.w3.org/2000/svg">
<g id="Upload">
<path id="Vector" d="M7.98384 7.06749L10.083 4.95915V13.75C10.083 13.9931 10.1796 14.2263 10.3515 14.3982C10.5234 14.5701 10.7566 14.6667 10.9997 14.6667C11.2428 14.6667 11.4759 14.5701 11.6479 14.3982C11.8198 14.2263 11.9163 13.9931 11.9163 13.75V4.95915L14.0155 7.06749C14.1007 7.1534 14.2021 7.2216 14.3138 7.26814C14.4255 7.31467 14.5453 7.33863 14.6663 7.33863C14.7874 7.33863 14.9072 7.31467 15.0189 7.26814C15.1306 7.2216 15.232 7.1534 15.3172 7.06749C15.4031 6.98227 15.4713 6.88089 15.5178 6.76918C15.5644 6.65748 15.5883 6.53766 15.5883 6.41665C15.5883 6.29564 15.5644 6.17583 15.5178 6.06412C15.4713 5.95242 15.4031 5.85104 15.3172 5.76582L11.6505 2.09915C11.5633 2.0157 11.4605 1.95028 11.348 1.90665C11.1248 1.81497 10.8745 1.81497 10.6513 1.90665C10.5388 1.95028 10.436 2.0157 10.3488 2.09915L6.68217 5.76582C6.59671 5.85129 6.52891 5.95275 6.48265 6.06442C6.4364 6.1761 6.41259 6.29578 6.41259 6.41665C6.41259 6.53752 6.4364 6.65721 6.48265 6.76888C6.52891 6.88055 6.59671 6.98202 6.68217 7.06749C6.76764 7.15296 6.86911 7.22075 6.98078 7.26701C7.09245 7.31326 7.21214 7.33707 7.33301 7.33707C7.45388 7.33707 7.57357 7.31326 7.68524 7.26701C7.79691 7.22075 7.89837 7.15296 7.98384 7.06749ZM19.2497 11C19.0066 11 18.7734 11.0966 18.6015 11.2685C18.4296 11.4404 18.333 11.6735 18.333 11.9167V17.4167C18.333 17.6598 18.2364 17.8929 18.0645 18.0648C17.8926 18.2367 17.6595 18.3333 17.4163 18.3333H4.58301C4.33989 18.3333 4.10673 18.2367 3.93483 18.0648C3.76292 17.8929 3.66634 17.6598 3.66634 17.4167V11.9167C3.66634 11.6735 3.56976 11.4404 3.39786 11.2685C3.22595 11.0966 2.99279 11 2.74967 11C2.50656 11 2.2734 11.0966 2.10149 11.2685C1.92958 11.4404 1.83301 11.6735 1.83301 11.9167V17.4167C1.83301 18.146 2.12274 18.8455 2.63846 19.3612C3.15419 19.8769 3.85366 20.1667 4.58301 20.1667H17.4163C18.1457 20.1667 18.8452 19.8769 19.3609 19.3612C19.8766 18.8455 20.1663 18.146 20.1663 17.4167V11.9167C20.1663 11.6735 20.0698 11.4404 19.8979 11.2685C19.7259 11.0966 19.4928 11 19.2497 11Z" fill="white"/>
</g>
</svg>
